<svg width="79" height="21" viewBox="0 0 79 21" fill="none" xmlns="http://www.w3.org/2000/svg">
<path d="M5.04 20.088C4.544 20.088 4.072 19.944 3.624 19.656C3.192 19.368 2.976 18.872 2.976 18.168C2.976 17.736 3.064 17.184 3.24 16.512C3.416 15.824 3.696 14.872 4.08 13.656C4.704 11.672 5.176 10.008 5.496 8.664C5.832 7.304 6 6 6 4.752C6 4 5.976 3.4 5.928 2.952C5.88 2.504 5.752 2.136 5.544 1.848C5.336 1.544 5.008 1.392 4.56 1.392C4.016 1.392 3.552 1.608 3.168 2.04C2.8 2.456 2.528 2.976 2.352 3.6C2.176 4.224 2.088 4.832 2.088 5.424C2.088 5.952 2.16 6.384 2.304 6.72C1.712 6.72 1.28 6.56 1.008 6.24C0.736 5.92 0.6 5.504 0.6 4.992C0.6 4.336 0.8 3.68 1.2 3.024C1.616 2.352 2.16 1.8 2.832 1.368C3.52 0.935999 4.24 0.719999 4.992 0.719999C5.968 0.719999 6.704 1.104 7.2 1.872C7.696 2.624 7.944 3.664 7.944 4.992C7.944 6.16 7.784 7.392 7.464 8.688C7.144 9.984 6.688 11.544 6.096 13.368C5.68 14.632 5.368 15.656 5.16 16.44C4.952 17.224 4.848 17.88 4.848 18.408C4.848 18.712 4.896 18.944 4.992 19.104C5.088 19.264 5.264 19.344 5.52 19.344C6.4 19.344 7.52 18.504 8.88 16.824C10.24 15.144 11.424 13.16 12.432 10.872C13.456 8.584 13.968 6.608 13.968 4.944C13.968 4.192 13.848 3.624 13.608 3.24C13.384 2.84 13.064 2.576 12.648 2.448C12.872 2.08 13.104 1.808 13.344 1.632C13.584 1.44 13.816 1.344 14.04 1.344C14.424 1.344 14.76 1.576 15.048 2.04C15.352 2.504 15.504 3.16 15.504 4.008C15.504 5.72 14.904 7.872 13.704 10.464C12.504 13.04 11.072 15.288 9.408 17.208C7.76 19.128 6.304 20.088 5.04 20.088ZM16.7811 18.72C16.1251 18.72 15.6371 18.496 15.3171 18.048C15.0131 17.6 14.8611 17 14.8611 16.248C14.8611 14.808 15.3571 12.856 16.3491 10.392C17.3411 7.912 18.4451 5.68 19.6611 3.696C20.8931 1.712 21.7811 0.719999 22.3251 0.719999C22.5491 0.719999 22.7331 0.919999 22.8771 1.32C23.0371 1.704 23.1171 2.096 23.1171 2.496C23.1171 3.232 22.8131 4.32 22.2051 5.76C21.6131 7.184 20.8291 8.632 19.8531 10.104C18.8771 11.576 17.8371 12.768 16.7331 13.68C16.5251 14.608 16.4211 15.416 16.4211 16.104C16.4211 17.336 16.7731 17.952 17.4771 17.952C18.0691 17.952 18.6691 17.576 19.2771 16.824C19.9011 16.072 20.4531 15.168 20.9331 14.112L21.2931 14.304C19.9171 17.248 18.4131 18.72 16.7811 18.72ZM16.9491 12.864C17.8291 11.984 18.6851 10.88 19.5171 9.552C20.3651 8.208 21.0531 6.928 21.5811 5.712C22.1091 4.48 22.3731 3.592 22.3731 3.048C22.3731 2.792 22.3171 2.664 22.2051 2.664C21.9811 2.664 21.5171 3.216 20.8131 4.32C20.1251 5.408 19.4131 6.744 18.6771 8.328C17.9411 9.912 17.3651 11.424 16.9491 12.864ZM21.6129 19.128C21.0849 19.128 20.6609 18.952 20.3409 18.6C20.0049 18.264 19.8369 17.776 19.8369 17.136C19.8369 16.192 20.1729 15.136 20.8449 13.968C21.5329 12.8 22.3969 11.808 23.4369 10.992C24.4769 10.176 25.4929 9.768 26.4849 9.768C27.1089 9.768 27.6289 9.936 28.0449 10.272C28.4609 10.608 28.6689 11.04 28.6689 11.568C28.6689 11.936 28.5649 12.2 28.3569 12.36C28.1489 12.52 27.8609 12.6 27.4929 12.6C27.5729 12.312 27.6129 12.032 27.6129 11.76C27.6129 11.36 27.5169 11.04 27.3249 10.8C27.1329 10.544 26.8369 10.416 26.4369 10.416C25.7329 10.416 24.9889 10.808 24.2049 11.592C23.4369 12.376 22.7889 13.312 22.2609 14.4C21.7489 15.488 21.4929 16.424 21.4929 17.208C21.4929 17.832 21.7089 18.144 22.1409 18.144C22.7809 18.144 23.5329 17.64 24.3969 16.632C25.2609 15.608 26.1889 14.368 27.1809 12.912C27.3889 12.944 27.5969 13.016 27.8049 13.128C28.0289 13.224 28.1409 13.352 28.1409 13.512C28.1409 13.64 28.0609 13.848 27.9009 14.136C27.7569 14.408 27.6689 14.568 27.6369 14.616C27.3649 15.08 27.1489 15.496 26.9889 15.864C26.8289 16.216 26.7489 16.544 26.7489 16.848C26.7489 17.12 26.8129 17.368 26.9409 17.592C27.0849 17.8 27.2929 17.904 27.5649 17.904C28.0289 17.904 28.6129 17.576 29.3169 16.92C30.0209 16.248 30.7169 15.312 31.4049 14.112L31.6449 14.352C31.3089 15.2 30.8769 15.96 30.3489 16.632C29.8209 17.288 29.2529 17.8 28.6449 18.168C28.0369 18.536 27.4529 18.72 26.8929 18.72C26.3329 18.72 25.9009 18.552 25.5969 18.216C25.3089 17.896 25.1649 17.504 25.1649 17.04C25.1649 16.832 25.1889 16.6 25.2369 16.344C24.5169 17.304 23.8689 18.008 23.2929 18.456C22.7329 18.904 22.1729 19.128 21.6129 19.128ZM32.3301 18.72C31.8661 18.72 31.4501 18.544 31.0821 18.192C30.7141 17.856 30.5301 17.36 30.5301 16.704C30.5301 15.824 30.8661 14.8 31.5381 13.632C32.2101 12.448 33.0501 11.44 34.0581 10.608C35.0661 9.776 36.0421 9.36 36.9861 9.36C37.6901 9.36 38.0421 9.608 38.0421 10.104C38.0421 10.168 38.0261 10.28 37.9941 10.44C37.8341 10.2 37.5301 10.08 37.0821 10.08C36.2821 10.08 35.5061 10.464 34.7541 11.232C34.0021 11.984 33.3861 12.872 32.9061 13.896C32.4421 14.92 32.2101 15.76 32.2101 16.416C32.2101 16.768 32.2821 17.048 32.4261 17.256C32.5861 17.464 32.8021 17.568 33.0741 17.568C33.5061 17.568 34.0341 17.296 34.6581 16.752C35.2821 16.192 35.9141 15.408 36.5541 14.4C37.1941 13.392 37.7621 12.248 38.2581 10.968C39.5061 7.736 40.5461 5.224 41.3781 3.432C42.2261 1.624 42.9381 0.719999 43.5141 0.719999C43.6421 0.719999 43.7541 0.775999 43.8501 0.887999C43.9461 0.983999 43.9941 1.112 43.9941 1.272C43.9941 1.512 43.8661 1.928 43.6101 2.52C43.3541 3.096 42.9381 3.992 42.3621 5.208C41.1781 7.672 40.2341 9.808 39.5301 11.616C38.8261 13.408 38.4741 14.976 38.4741 16.32C38.4741 16.848 38.4981 17.208 38.5461 17.4C38.6101 17.576 38.7701 17.664 39.0261 17.664C39.3621 17.664 39.7541 17.52 40.2021 17.232C40.6661 16.928 41.1221 16.512 41.5701 15.984C42.0181 15.44 42.4021 14.816 42.7221 14.112L43.0101 14.328C42.7061 15.128 42.2901 15.856 41.7621 16.512C41.2341 17.168 40.6661 17.68 40.0581 18.048C39.4661 18.432 38.8981 18.624 38.3541 18.624C37.8101 18.624 37.4101 18.448 37.1541 18.096C36.8981 17.744 36.7701 17.32 36.7701 16.824C36.7701 16.28 36.9221 15.424 37.2261 14.256C36.4101 15.6 35.5621 16.68 34.6821 17.496C33.8181 18.312 33.0341 18.72 32.3301 18.72ZM46.8658 7.632C46.5778 7.632 46.3378 7.568 46.1458 7.44C45.9698 7.296 45.8818 7.096 45.8818 6.84C45.8818 6.52 46.0738 6.232 46.4578 5.976C46.8418 5.72 47.2338 5.592 47.6338 5.592C48.1618 5.592 48.4258 5.84 48.4258 6.336C48.4258 6.64 48.2578 6.936 47.9218 7.224C47.6018 7.496 47.2498 7.632 46.8658 7.632ZM43.9858 18.624C43.3938 18.624 42.9378 18.432 42.6178 18.048C42.2978 17.68 42.1378 17.2 42.1378 16.608C42.1378 15.984 42.3138 15.12 42.6658 14.016C43.0338 12.912 43.4818 11.944 44.0098 11.112C44.5538 10.28 45.0818 9.864 45.5938 9.864C45.7378 9.864 45.8578 9.912 45.9538 10.008C46.0658 10.104 46.1218 10.232 46.1218 10.392C46.1218 10.616 45.8658 11.152 45.3538 12C44.8258 12.88 44.4018 13.672 44.0818 14.376C43.7778 15.064 43.6258 15.72 43.6258 16.344C43.6258 16.904 43.7138 17.288 43.8898 17.496C44.0818 17.688 44.3858 17.784 44.8018 17.784C46.0498 17.784 47.2818 16.56 48.4978 14.112L48.7138 14.352C48.2658 15.696 47.6018 16.744 46.7218 17.496C45.8578 18.248 44.9458 18.624 43.9858 18.624ZM60.1429 18.744C59.6149 18.744 59.2149 18.576 58.9429 18.24C58.6709 17.92 58.5349 17.504 58.5349 16.992C58.5349 16.56 58.6629 15.928 58.9189 15.096C58.9989 14.824 59.0709 14.552 59.1349 14.28C59.2149 14.008 59.2549 13.776 59.2549 13.584C59.2549 13.296 59.1829 13.08 59.0389 12.936C58.9109 12.792 58.7509 12.72 58.5589 12.72C58.1909 12.72 57.7909 12.984 57.3589 13.512C56.9429 14.024 56.2949 14.952 55.4149 16.296C55.1909 16.648 54.8789 17.24 54.4789 18.072L54.2629 18.528C54.0069 18.528 53.7349 18.48 53.4469 18.384C53.1749 18.304 53.0389 18.192 53.0389 18.048C53.0389 17.936 53.1749 17.512 53.4469 16.776C53.7829 15.784 54.0469 14.952 54.2389 14.28C54.4469 13.592 54.5509 13.008 54.5509 12.528C54.5509 11.92 54.3509 11.616 53.9509 11.616C53.5029 11.616 52.9189 11.976 52.1989 12.696C51.4949 13.416 50.7989 14.328 50.1109 15.432C49.4229 16.52 48.8869 17.592 48.5029 18.648C48.2629 18.648 47.9909 18.592 47.6869 18.48C47.3669 18.368 47.2069 18.256 47.2069 18.144C47.2069 18.096 47.3189 17.72 47.5429 17.016C47.9109 15.944 48.2149 14.96 48.4549 14.064C48.7109 13.168 48.8469 12.392 48.8629 11.736C48.9749 11.608 49.1349 11.496 49.3429 11.4C49.5509 11.288 49.7589 11.232 49.9669 11.232C50.3989 11.232 50.6149 11.44 50.6149 11.856C50.6149 12.288 50.4069 13.2 49.9909 14.592C50.7749 13.344 51.6149 12.272 52.5109 11.376C53.4229 10.48 54.2709 10.032 55.0549 10.032C55.5189 10.032 55.8469 10.2 56.0389 10.536C56.2469 10.872 56.3509 11.312 56.3509 11.856C56.3509 12.4 56.2709 12.992 56.1109 13.632C55.9509 14.272 55.7829 14.808 55.6069 15.24C56.2149 14.136 56.8469 13.248 57.5029 12.576C58.1589 11.888 58.8549 11.544 59.5909 11.544C60.0709 11.544 60.4149 11.688 60.6229 11.976C60.8469 12.264 60.9589 12.632 60.9589 13.08C60.9589 13.384 60.9189 13.712 60.8389 14.064C60.7589 14.4 60.6389 14.816 60.4789 15.312C60.2069 16.16 60.0709 16.752 60.0709 17.088C60.0709 17.632 60.3109 17.904 60.7909 17.904C61.3829 17.904 61.9429 17.544 62.4709 16.824C62.9989 16.088 63.5109 15.184 64.0069 14.112L64.2949 14.448C63.8469 15.632 63.2629 16.648 62.5429 17.496C61.8229 18.328 61.0229 18.744 60.1429 18.744ZM68.1705 7.632C67.8825 7.632 67.6425 7.568 67.4505 7.44C67.2745 7.296 67.1865 7.096 67.1865 6.84C67.1865 6.52 67.3785 6.232 67.7625 5.976C68.1465 5.72 68.5385 5.592 68.9385 5.592C69.4665 5.592 69.7305 5.84 69.7305 6.336C69.7305 6.64 69.5625 6.936 69.2265 7.224C68.9065 7.496 68.5545 7.632 68.1705 7.632ZM65.2905 18.624C64.6985 18.624 64.2425 18.432 63.9225 18.048C63.6025 17.68 63.4425 17.2 63.4425 16.608C63.4425 15.984 63.6185 15.12 63.9705 14.016C64.3385 12.912 64.7865 11.944 65.3145 11.112C65.8585 10.28 66.3865 9.864 66.8985 9.864C67.0425 9.864 67.1625 9.912 67.2585 10.008C67.3705 10.104 67.4265 10.232 67.4265 10.392C67.4265 10.616 67.1705 11.152 66.6585 12C66.1305 12.88 65.7065 13.672 65.3865 14.376C65.0825 15.064 64.9305 15.72 64.9305 16.344C64.9305 16.904 65.0185 17.288 65.1945 17.496C65.3865 17.688 65.6905 17.784 66.1065 17.784C67.3545 17.784 68.5865 16.56 69.8025 14.112L70.0185 14.352C69.5705 15.696 68.9065 16.744 68.0265 17.496C67.1625 18.248 66.2505 18.624 65.2905 18.624ZM73.5036 18.624C72.9596 18.624 72.5276 18.48 72.2076 18.192C71.9036 17.904 71.7516 17.528 71.7516 17.064C71.7516 16.52 71.9836 15.736 72.4476 14.712C72.6556 14.184 72.8076 13.768 72.9036 13.464C73.0156 13.144 73.0716 12.848 73.0716 12.576C73.0716 12.176 72.9756 11.864 72.7836 11.64C72.6076 11.4 72.4076 11.208 72.1836 11.064C71.9596 10.904 71.8076 10.8 71.7276 10.752C71.3756 11.648 70.9996 12.528 70.5996 13.392C70.1996 14.24 69.8636 14.896 69.5916 15.36L69.3756 14.952C70.1436 13.464 70.7916 11.944 71.3196 10.392C71.1596 10.232 71.0796 10.04 71.0796 9.816C71.0796 9.528 71.1356 9.256 71.2476 9C71.3756 8.744 71.5196 8.544 71.6796 8.4C71.8556 8.256 71.9916 8.184 72.0876 8.184C72.3116 8.184 72.4236 8.376 72.4236 8.76C72.4236 8.824 72.3836 8.968 72.3036 9.192C72.2236 9.416 72.1756 9.568 72.1596 9.648C72.1596 9.808 72.2236 9.96 72.3516 10.104C72.4956 10.232 72.7196 10.4 73.0236 10.608C73.5196 10.96 73.9036 11.312 74.1756 11.664C74.4636 12 74.6076 12.44 74.6076 12.984C74.6076 13.336 74.5516 13.688 74.4396 14.04C74.3276 14.376 74.1596 14.824 73.9356 15.384C73.5836 16.152 73.4076 16.704 73.4076 17.04C73.4076 17.52 73.6476 17.76 74.1276 17.76C74.6076 17.76 75.1196 17.568 75.6636 17.184C76.2236 16.8 76.7356 16.328 77.1996 15.768C77.6636 15.192 77.9996 14.664 78.2076 14.184L78.5196 14.424C78.0236 15.528 77.3036 16.504 76.3596 17.352C75.4156 18.2 74.4636 18.624 73.5036 18.624Z" fill="white"/>
</svg>
